<svg
  width="100%"
  height="100%"
  viewBox="0 0 650 350"
  style="fill-rule: evenodd; clip-rule: evenodd; stroke-linejoin: round; stroke-miterlimit: 2"
>
  <path
    id="cloud3"
    d="M328.776,65.821c38.408,0.033 73.875,16.804 93.229,44.008c7.474,-2.012 15.308,-2.979 23.179,-2.992c38.295,0.017 70.358,23.709 74.346,54.946c38.042,3.296 67.004,29.567 67.058,60.938c-0,33.9 -33.533,61.458 -74.871,61.458l-282.68,0c-5.55,0 -10.941,-0.621 -16.146,-1.562l-90.758,0c-32.429,0 -58.721,-17.588 -58.721,-39.192c0.017,-20.008 22.739,-36.7 52.604,-38.804c-0.212,-1.521 -0.365,-3.154 -0.391,-4.688c0,-31.208 37.921,-56.508 84.766,-56.508c7.356,0.004 14.55,0.737 21.484,1.954c5.65,-44.612 51.012,-79.558 106.9,-79.558Z"
    style="fill: url(#_Linear1)"
  />
  <defs>
    <linearGradient
      id="_Linear1"
      x1="0"
      y1="0"
      x2="1"
      y2="0"
      gradientUnits="userSpaceOnUse"
      gradientTransform="matrix(499.958,3.0675,-3.0675,499.958,75.0155,176.717)"
    >
      <stop offset="0" style="stop-color: #e8e8e8; stop-opacity: 1" />
      <stop offset="1" style="stop-color: #fafafa; stop-opacity: 1" />
    </linearGradient>
  </defs>
</svg>
