<svg
  width="100%"
  height="100%"
  viewBox="0 0 650 350"
  style="fill-rule: evenodd; clip-rule: evenodd; stroke-linejoin: round; stroke-miterlimit: 2"
>
  <path
    id="cloud2"
    d="M429.184,26.363c-44.201,0.046 -85.009,22.554 -107.28,59.146c-8.604,-2.708 -17.575,-4.108 -26.634,-4.129c-32.787,0.021 -61.575,17.758 -76.082,44.1c-4.304,3.967 -8.393,8.1 -11.851,12.637c-8.52,-2.141 -17.442,-3.245 -26.412,-3.266c-43.655,0.024 -80.234,25.291 -84.784,58.546c-43.357,3.507 -76.241,31.512 -76.304,64.904c0.001,36.087 38.208,65.337 85.329,65.337l322.279,-0c9.696,-0 18.814,-1.505 27.5,-3.784l89.131,0c47.569,0 86.083,-36.938 86.087,-82.529c-0.026,-42.216 -33.262,-77.579 -77.068,-82.012c0.314,-3.216 0.506,-6.483 0.542,-9.716c0,-65.856 -55.742,-119.234 -124.454,-119.234Z"
    style="fill: url(#_Linear1)"
  />
  <defs>
    <linearGradient
      id="_Linear1"
      x1="0"
      y1="0"
      x2="1"
      y2="0"
      gradientUnits="userSpaceOnUse"
      gradientTransform="matrix(605.9,-8.70954,8.70954,605.9,24.2565,183.709)"
    >
      <stop offset="0" style="stop-color: #e8e8e8; stop-opacity: 1" />
      <stop offset="1" style="stop-color: #fafafa; stop-opacity: 1" />
    </linearGradient>
  </defs>
</svg>
